<svg xmlns="http://www.w3.org/2000/svg" viewBox="0 0 960 496" role="img" aria-labelledby="t d"><title id="t">Coupes de quatre types de cordes</title><desc id="d">Coupe d'une corde semi-statique à âme et gaine, d'une corde dynamique, d'un cordage torsadé à trois torons et d'un cordage tressé creux.</desc><style>text{font-family:system-ui,-apple-system,"Segoe UI",Roboto,Arial,sans-serif;fill:#112f43}.b{font-weight:700}.t{font-size:16px}.s{font-size:13px}.n{fill:#082b45}.k{font-size:13px;font-weight:700;fill:#fff}</style><rect width="100%" height="100%" rx="14" fill="#fff"/><text x="24" y="32" class="b n" style="font-size:19px">Coupes schématiques : de quoi est faite une corde ?</text><circle cx="120" cy="190" r="72" fill="#075b9b"/><circle cx="120" cy="190" r="62.0" fill="none" stroke="#fff" stroke-opacity=".55" stroke-width="18.0" stroke-dasharray="5 6"/><circle cx="120" cy="190" r="52" fill="#fff"/><circle cx="120" cy="190" r="52" fill="#dbe7ef"/><circle cx="120.0" cy="190.0" r="14" fill="#ec168c" stroke="#fff" stroke-width="2"/><circle cx="150.0" cy="190.0" r="14" fill="#ec168c" stroke="#fff" stroke-width="2"/><circle cx="135.0" cy="216.0" r="14" fill="#ec168c" stroke="#fff" stroke-width="2"/><circle cx="105.0" cy="216.0" r="14" fill="#ec168c" stroke="#fff" stroke-width="2"/><circle cx="90.0" cy="190.0" r="14" fill="#ec168c" stroke="#fff" stroke-width="2"/><circle cx="105.0" cy="164.0" r="14" fill="#ec168c" stroke="#fff" stroke-width="2"/><circle cx="135.0" cy="164.0" r="14" fill="#ec168c" stroke="#fff" stroke-width="2"/><path d="M182 153 L215 110" stroke="#112f43" stroke-width="1.5"/><circle cx="220" cy="104" r="11" fill="#ec168c"/><text x="220" y="108.5" text-anchor="middle" class="k">1</text><path d="M148 206 L215 260" stroke="#112f43" stroke-width="1.5"/><circle cx="220" cy="266" r="11" fill="#ec168c"/><text x="220" y="270.5" text-anchor="middle" class="k">2</text><circle cx="360" cy="190" r="72" fill="#075b9b"/><circle cx="360" cy="190" r="62.0" fill="none" stroke="#fff" stroke-opacity=".55" stroke-width="9.0" stroke-dasharray="5 6"/><circle cx="360" cy="190" r="52" fill="#fff"/><circle cx="360" cy="190" r="52" fill="#dbe7ef"/><circle cx="360.0" cy="168.0" r="22" fill="#ec168c" stroke="#fff" stroke-width="2"/><path d="M344.0 171.0 q16 -22 32 -4" stroke="#fff" stroke-opacity=".7" stroke-width="3" fill="none"/><circle cx="379.1" cy="201.0" r="22" fill="#ec168c" stroke="#fff" stroke-width="2"/><path d="M367.4 211.5 q16 -22 32 -4" stroke="#fff" stroke-opacity=".7" stroke-width="3" fill="none"/><circle cx="340.9" cy="201.0" r="22" fill="#ec168c" stroke="#fff" stroke-width="2"/><path d="M320.6 211.5 q16 -22 32 -4" stroke="#fff" stroke-opacity=".7" stroke-width="3" fill="none"/><path d="M427 160 L460 110" stroke="#112f43" stroke-width="1.5"/><circle cx="465" cy="104" r="11" fill="#ec168c"/><text x="465" y="108.5" text-anchor="middle" class="k">1</text><path d="M382 215 L460 260" stroke="#112f43" stroke-width="1.5"/><circle cx="465" cy="266" r="11" fill="#ec168c"/><text x="465" y="270.5" text-anchor="middle" class="k">2</text><circle cx="600.0" cy="152.0" r="38" fill="#082b45" stroke="#fff" stroke-width="2"/><circle cx="600.0" cy="152.0" r="26" fill="none" stroke="#fff" stroke-opacity=".5" stroke-width="2" stroke-dasharray="4 5"/><circle cx="632.9" cy="209.0" r="38" fill="#082b45" stroke="#fff" stroke-width="2"/><circle cx="632.9" cy="209.0" r="26" fill="none" stroke="#fff" stroke-opacity=".5" stroke-width="2" stroke-dasharray="4 5"/><circle cx="567.1" cy="209.0" r="38" fill="#082b45" stroke="#fff" stroke-width="2"/><circle cx="567.1" cy="209.0" r="26" fill="none" stroke="#fff" stroke-opacity=".5" stroke-width="2" stroke-dasharray="4 5"/><path d="M655 185 L700 128" stroke="#112f43" stroke-width="1.5"/><circle cx="705" cy="122" r="11" fill="#ec168c"/><text x="705" y="126.5" text-anchor="middle" class="k">3</text><circle cx="830" cy="190" r="72" fill="#475569"/><circle cx="830" cy="190" r="56.0" fill="none" stroke="#fff" stroke-opacity=".55" stroke-width="28.8" stroke-dasharray="5 6"/><circle cx="830" cy="190" r="40" fill="#fff"/><circle cx="830" cy="190" r="40" fill="#eef3f7" stroke="#9fb3c2" stroke-dasharray="3 4"/><path d="M892 153 L925 110" stroke="#112f43" stroke-width="1.5"/><circle cx="930" cy="104" r="11" fill="#ec168c"/><text x="930" y="108.5" text-anchor="middle" class="k">4</text><path d="M836 194 L925 260" stroke="#112f43" stroke-width="1.5"/><circle cx="930" cy="266" r="11" fill="#ec168c"/><text x="930" y="270.5" text-anchor="middle" class="k">5</text><text x="120" y="318" text-anchor="middle" class="b n t">Semi-statique (EN 1891)</text><text x="120" y="340" text-anchor="middle" class="s">Âme + gaine tressée</text><text x="120" y="358" text-anchor="middle" class="s">Faible allongement</text><text x="360" y="318" text-anchor="middle" class="b n t">Dynamique (EN 892)</text><text x="360" y="340" text-anchor="middle" class="s">Âme torsadée + gaine</text><text x="360" y="358" text-anchor="middle" class="s">Absorbe l’énergie d’une chute</text><text x="600" y="318" text-anchor="middle" class="b n t">Cordage torsadé</text><text x="600" y="340" text-anchor="middle" class="s">Trois torons</text><text x="600" y="358" text-anchor="middle" class="s">Manutention, non EPI</text><text x="830" y="318" text-anchor="middle" class="b n t">Cordage tressé creux</text><text x="830" y="340" text-anchor="middle" class="s">Sans âme porteuse</text><text x="830" y="358" text-anchor="middle" class="s">Manutention, non EPI</text><path d="M24 380 H936" stroke="#cddae3"/><circle cx="35" cy="398" r="11" fill="#ec168c"/><text x="35" y="402.5" text-anchor="middle" class="k">1</text><text x="54" y="402" class="s">Gaine : tresse extérieure qui protège l’âme (abrasion, UV, saleté)</text><circle cx="505" cy="398" r="11" fill="#ec168c"/><text x="505" y="402.5" text-anchor="middle" class="k">2</text><text x="524" y="402" class="s">Âme : brins qui portent l’essentiel de la charge</text><circle cx="35" cy="422" r="11" fill="#ec168c"/><text x="35" y="426.5" text-anchor="middle" class="k">3</text><text x="54" y="426" class="s">Toron : trois torons enroulés ensemble</text><circle cx="505" cy="422" r="11" fill="#ec168c"/><text x="505" y="426.5" text-anchor="middle" class="k">4</text><text x="524" y="426" class="s">Tresse extérieure</text><circle cx="35" cy="446" r="11" fill="#ec168c"/><text x="35" y="450.5" text-anchor="middle" class="k">5</text><text x="54" y="450" class="s">Centre creux ou garnissage léger</text><text x="24" y="486" class="s" style="font-style:italic">Schéma de principe, hors échelle : le nombre de brins varie selon le fabricant.</text></svg>